<svg xmlns="http://www.w3.org/2000/svg" viewBox="0 0 1001 1001"><defs><style>.cls-1{stroke:#000;}.cls-1,.cls-2{stroke-miterlimit:10;}.cls-2{fill:none;stroke:#fff;stroke-width:9px;}</style></defs><g id="Layer_2" data-name="Layer 2"><g id="Layer_3" data-name="Layer 3"><rect class="cls-1" x="0.5" y="0.5" width="1000" height="1000"/><path class="cls-2" d="M636.49,690.87c79.87,98.92,68.23,92.83,91.87,122.92,11,14,50,48,74,35,54.75-29.65,121-14,80-60,0,0-102.87-138.92-129.87-181.92S629.22,320.8,603.36,306.79c-24-13-58.87-100.92-58.87-100.92s-28-116-129-128c0,0-44-9-72,15l-42,4s-59-3-88.5,30.5c0,0,33,17,81,18,0,0,36.74.85,59.37,30.42,0,0,24,54,28,89,0,0-51.87,129.08-47.87,163.08s14.74,68.29,21.87,86.92c7.28,19,45,119,63,140C418.36,654.79,505.62,765,636.49,690.87Z"/><path class="cls-2" d="M514.49,389.87s-41,7-13,54S729.36,752.79,882.36,822.79"/><path class="cls-2" d="M567.74,715.05s7.08,52.65,17.76,53.45c3.31.25,9.38-.09,12-7,5.84-15.38,8.87-44.42,3.15-54.33"/><path class="cls-2" d="M427.49,664.67l28.87,86.12s33.7,20,35.35-8-9.82-40.54-9.82-40.54"/><path class="cls-2" d="M464.52,754.7,443.36,875.79s-12,23-33,23c-16,0-53.87,5.85-70,10-5.05,1.3-6,5-6,5l43.48-2.3-45.48,13.3-3,5,118.13-22,52.87-2s-54-6-46-18,21.55-130.16,21.55-130.16"/><path class="cls-2" d="M584.5,768.5l-7.14,121.29-36,17s-43.42,6.68-62,10c-7.47,1.34-8,3-8,3l102.27-9-67.27,18-2,4,81.25-14.31,24.75,10.31,10,.93-16.89-26.67-8.11-23.73,2-118.53"/></g></g></svg>